<svg width="25" height="21" viewBox="0 0 25 21" fill="none" xmlns="http://www.w3.org/2000/svg">
<path d="M23.3872 0H1.61296C1.18537 0.000560118 0.775445 0.17067 0.473088 0.473027C0.170731 0.775384 0.000621154 1.18531 6.10352e-05 1.6129V15.3226C0.000621154 15.7502 0.170731 16.1601 0.473088 16.4625C0.775445 16.7648 1.18537 16.9349 1.61296 16.9355H9.92446L9.38665 18.5484H8.06458C7.95763 18.5484 7.85507 18.5909 7.77945 18.6665C7.70383 18.7421 7.66135 18.8447 7.66135 18.9516V19.7581H4.03232C3.92538 19.7581 3.82281 19.8005 3.7472 19.8762C3.67158 19.9518 3.62909 20.0543 3.62909 20.1613C3.62909 20.2682 3.67158 20.3708 3.7472 20.4464C3.82281 20.522 3.92538 20.5645 4.03232 20.5645H21.7743C21.8812 20.5645 21.9838 20.522 22.0594 20.4464C22.135 20.3708 22.1775 20.2682 22.1775 20.1613C22.1775 20.0543 22.135 19.9518 22.0594 19.8762C21.9838 19.8005 21.8812 19.7581 21.7743 19.7581H17.3388V18.9516C17.3388 18.8447 17.2963 18.7421 17.2207 18.6665C17.1451 18.5909 17.0425 18.5484 16.9355 18.5484H15.6135L15.0757 16.9355H23.3872C23.8148 16.9349 24.2247 16.7648 24.527 16.4625C24.8294 16.1601 24.9995 15.7502 25.0001 15.3226V1.6129C24.9995 1.18531 24.8294 0.775384 24.527 0.473027C24.2247 0.17067 23.8148 0.000560118 23.3872 0ZM16.5323 19.3548V19.7581H8.4678V19.3548H16.5323ZM10.237 18.5484L10.7748 16.9355H14.2254L14.7632 18.5484H10.237ZM24.1936 15.3226C24.1933 15.5364 24.1083 15.7413 23.9571 15.8925C23.8059 16.0437 23.601 16.1288 23.3872 16.129H1.61296C1.39917 16.1288 1.1942 16.0437 1.04303 15.8925C0.891848 15.7413 0.806793 15.5364 0.806513 15.3226V14.5161H24.1936V15.3226ZM6.83776 10.0806L6.68655 13.7097H6.21679L6.06559 10.0806H6.83776ZM6.12103 9.27419L6.39018 7.66129H6.51317L6.78232 9.27419H6.12103ZM6.45167 6.85484C6.01468 6.85484 5.64522 6.30091 5.64522 5.64516C5.64522 5.23135 6.0676 4.63004 6.45067 4.20615C6.79593 4.58921 7.25813 5.20161 7.25813 5.64516C7.25813 6.30091 6.88867 6.85484 6.45167 6.85484ZM10.8398 6.04839L10.8872 6.14365V6.45161H9.27425V6.14365L9.32163 6.04839H10.8398ZM9.72486 5.24194L10.0807 4.53075L10.4366 5.24194H9.72486ZM10.8872 7.25806V13.6593C10.8873 13.6761 10.8885 13.693 10.8907 13.7097H9.27073C9.27292 13.693 9.2741 13.6761 9.27425 13.6593V7.25806H10.8872ZM14.5162 5.64516H15.7259V6.45161H15.3226C15.2157 6.45161 15.1131 6.4941 15.0375 6.56971C14.9619 6.64533 14.9194 6.7479 14.9194 6.85484C14.9194 6.96178 14.9619 7.06434 15.0375 7.13996C15.1131 7.21558 15.2157 7.25806 15.3226 7.25806H15.7259V8.06452H14.5162C14.4092 8.06452 14.3067 8.107 14.2311 8.18262C14.1554 8.25824 14.113 8.3608 14.113 8.46774C14.113 8.57468 14.1554 8.67725 14.2311 8.75287C14.3067 8.82849 14.4092 8.87097 14.5162 8.87097H15.7259V9.67742H15.3226C15.2157 9.67742 15.1131 9.7199 15.0375 9.79552C14.9619 9.87114 14.9194 9.9737 14.9194 10.0806C14.9194 10.1876 14.9619 10.2901 15.0375 10.3658C15.1131 10.4414 15.2157 10.4839 15.3226 10.4839H15.7259V11.2903H14.5162C14.4092 11.2903 14.3067 11.3328 14.2311 11.4084C14.1554 11.484 14.113 11.5866 14.113 11.6935C14.113 11.8005 14.1554 11.9031 14.2311 11.9787C14.3067 12.0543 14.4092 12.0968 14.5162 12.0968H15.7259V13.7097H12.9033V4.03226H15.7259V4.83871H14.5162C14.4092 4.83871 14.3067 4.88119 14.2311 4.95681C14.1554 5.03243 14.113 5.13499 14.113 5.24194C14.113 5.34888 14.1554 5.45144 14.2311 5.52706C14.3067 5.60268 14.4092 5.64516 14.5162 5.64516ZM19.3549 10.4839V13.6593C19.3551 13.6761 19.3562 13.693 19.3584 13.7097H17.7385C17.7407 13.693 17.7418 13.6761 17.742 13.6593V10.4839H19.3549ZM17.742 9.67742V9.36946L18.5484 7.75655L19.3549 9.36946V9.67742H17.742ZM24.1936 13.7097H20.1578C20.16 13.693 20.1612 13.6761 20.1614 13.6593V9.27419C20.1613 9.21159 20.1468 9.14985 20.119 9.09375L18.9093 6.6744C18.8758 6.60743 18.8242 6.55113 18.7605 6.51178C18.6968 6.47243 18.6234 6.4516 18.5484 6.4516C18.4735 6.4516 18.4001 6.47243 18.3364 6.51178C18.2727 6.55113 18.2211 6.60743 18.1876 6.6744L16.9779 9.09375C16.9501 9.14985 16.9356 9.21159 16.9355 9.27419V13.6593C16.9357 13.6761 16.9369 13.693 16.9391 13.7097H16.5323V3.62903C16.5323 3.52209 16.4898 3.41953 16.4142 3.34391C16.3386 3.26829 16.236 3.22581 16.1291 3.22581H12.5001C12.3931 3.22581 12.2906 3.26829 12.2149 3.34391C12.1393 3.41953 12.0968 3.52209 12.0968 3.62903V13.7097H11.6901C11.6923 13.693 11.6935 13.6761 11.6936 13.6593V6.04839C11.6936 5.98579 11.6791 5.92404 11.6513 5.86794L10.4416 3.44859C10.408 3.38163 10.3565 3.32532 10.2928 3.28598C10.229 3.24663 10.1556 3.22579 10.0807 3.22579C10.0058 3.22579 9.93238 3.24663 9.86865 3.28598C9.80491 3.32532 9.75338 3.38163 9.71982 3.44859L8.51014 5.86794C8.48235 5.92404 8.46786 5.98579 8.4678 6.04839V13.6593C8.46796 13.6761 8.46914 13.693 8.47133 13.7097H7.49351L7.66085 9.69405C7.66135 9.68498 7.66085 9.67591 7.66085 9.66633V9.65423C7.65991 9.64004 7.65823 9.62591 7.65581 9.61189V9.61089L7.28282 7.37248C7.75107 7.01915 8.06458 6.37702 8.06458 5.64516C8.06458 4.60887 6.86347 3.46119 6.72637 3.33367C6.65166 3.26442 6.55355 3.22594 6.45167 3.22594C6.3498 3.22594 6.25169 3.26442 6.17698 3.33367C6.03988 3.46119 4.83877 4.60887 4.83877 5.64516C4.83877 6.37702 5.15228 7.01915 5.62052 7.37248L5.24754 9.61089V9.61189C5.24512 9.62591 5.24343 9.64004 5.2425 9.65423V9.66633C5.2425 9.67591 5.242 9.68498 5.2425 9.69405L5.40984 13.7097H0.806513V1.6129C0.806793 1.3991 0.891848 1.19414 1.04303 1.04297C1.1942 0.891787 1.39917 0.806732 1.61296 0.806452H23.3872C23.601 0.806732 23.8059 0.891787 23.9571 1.04297C24.1083 1.19414 24.1933 1.3991 24.1936 1.6129V13.7097Z" fill="black"/>
<path d="M4.43556 14.9193H2.0162C1.90926 14.9193 1.8067 14.9618 1.73108 15.0374C1.65546 15.113 1.61298 15.2156 1.61298 15.3225C1.61298 15.4295 1.65546 15.532 1.73108 15.6077C1.8067 15.6833 1.90926 15.7258 2.0162 15.7258H4.43556C4.5425 15.7258 4.64506 15.6833 4.72068 15.6077C4.7963 15.532 4.83878 15.4295 4.83878 15.3225C4.83878 15.2156 4.7963 15.113 4.72068 15.0374C4.64506 14.9618 4.5425 14.9193 4.43556 14.9193Z" fill="black"/>
<path d="M6.04846 14.9193H5.64523C5.53829 14.9193 5.43573 14.9618 5.36011 15.0374C5.28449 15.113 5.242 15.2156 5.242 15.3225C5.242 15.4295 5.28449 15.532 5.36011 15.6077C5.43573 15.6833 5.53829 15.7258 5.64523 15.7258H6.04846C6.1554 15.7258 6.25796 15.6833 6.33358 15.6077C6.4092 15.532 6.45168 15.4295 6.45168 15.3225C6.45168 15.2156 6.4092 15.113 6.33358 15.0374C6.25796 14.9618 6.1554 14.9193 6.04846 14.9193Z" fill="black"/>
<path d="M10.0807 7.66125C9.97377 7.66125 9.87121 7.70374 9.79559 7.77936C9.71997 7.85498 9.67749 7.95754 9.67749 8.06448V12.5C9.67749 12.6069 9.71997 12.7095 9.79559 12.7851C9.87121 12.8607 9.97377 12.9032 10.0807 12.9032C10.1877 12.9032 10.2902 12.8607 10.3658 12.7851C10.4415 12.7095 10.4839 12.6069 10.4839 12.5V8.06448C10.4839 7.95754 10.4415 7.85498 10.3658 7.77936C10.2902 7.70374 10.1877 7.66125 10.0807 7.66125Z" fill="black"/>
<path d="M18.5484 10.8871C18.4415 10.8871 18.3389 10.9296 18.2633 11.0052C18.1877 11.0808 18.1452 11.1834 18.1452 11.2903V12.5C18.1452 12.6069 18.1877 12.7095 18.2633 12.7851C18.3389 12.8607 18.4415 12.9032 18.5484 12.9032C18.6554 12.9032 18.7579 12.8607 18.8336 12.7851C18.9092 12.7095 18.9517 12.6069 18.9517 12.5V11.2903C18.9517 11.1834 18.9092 11.0808 18.8336 11.0052C18.7579 10.9296 18.6554 10.8871 18.5484 10.8871Z" fill="black"/>
<path d="M2.0162 2.41937H5.24201C5.34895 2.41937 5.45151 2.37688 5.52713 2.30126C5.60275 2.22564 5.64523 2.12308 5.64523 2.01614C5.64523 1.9092 5.60275 1.80664 5.52713 1.73102C5.45151 1.6554 5.34895 1.61292 5.24201 1.61292H2.0162C1.90926 1.61292 1.8067 1.6554 1.73108 1.73102C1.65546 1.80664 1.61298 1.9092 1.61298 2.01614C1.61298 2.12308 1.65546 2.22564 1.73108 2.30126C1.8067 2.37688 1.90926 2.41937 2.0162 2.41937Z" fill="black"/>
<path d="M2.0162 3.62908H2.82265C2.9296 3.62908 3.03216 3.5866 3.10778 3.51098C3.1834 3.43536 3.22588 3.3328 3.22588 3.22586C3.22588 3.11892 3.1834 3.01635 3.10778 2.94073C3.03216 2.86511 2.9296 2.82263 2.82265 2.82263H2.0162C1.90926 2.82263 1.8067 2.86511 1.73108 2.94073C1.65546 3.01635 1.61298 3.11892 1.61298 3.22586C1.61298 3.3328 1.65546 3.43536 1.73108 3.51098C1.8067 3.5866 1.90926 3.62908 2.0162 3.62908Z" fill="black"/>
<path d="M21.371 12.9033H22.9839C23.0908 12.9033 23.1934 12.8608 23.269 12.7852C23.3446 12.7095 23.3871 12.607 23.3871 12.5C23.3871 12.3931 23.3446 12.2905 23.269 12.2149C23.1934 12.1393 23.0908 12.0968 22.9839 12.0968H21.371C21.2641 12.0968 21.1615 12.1393 21.0859 12.2149C21.0103 12.2905 20.9678 12.3931 20.9678 12.5C20.9678 12.607 21.0103 12.7095 21.0859 12.7852C21.1615 12.8608 21.2641 12.9033 21.371 12.9033Z" fill="black"/>
<path d="M22.5807 11.6935H22.9839C23.0909 11.6935 23.1934 11.6511 23.2691 11.5754C23.3447 11.4998 23.3872 11.3973 23.3872 11.2903C23.3872 11.1834 23.3447 11.0808 23.2691 11.0052C23.1934 10.9296 23.0909 10.8871 22.9839 10.8871H22.5807C22.4738 10.8871 22.3712 10.9296 22.2956 11.0052C22.22 11.0808 22.1775 11.1834 22.1775 11.2903C22.1775 11.3973 22.22 11.4998 22.2956 11.5754C22.3712 11.6511 22.4738 11.6935 22.5807 11.6935Z" fill="black"/>
</svg>
